<svg width="24" height="24" viewBox="0 0 24 24" fill="none" xmlns="http://www.w3.org/2000/svg">
<path d="M12.2659 6.11621C12.6888 6.11621 12.9707 6.39812 12.9707 6.82099V11.0497H17.1994C17.6222 11.0497 17.9041 11.3316 17.9041 11.7544C17.9041 12.1773 17.6222 12.4592 17.1994 12.4592H12.9707V16.6879C12.9707 17.1108 12.6888 17.3927 12.2659 17.3927C11.843 17.3927 11.5611 17.1108 11.5611 16.6879V12.4592H7.33246C6.9096 12.4592 6.62769 12.1773 6.62769 11.7544C6.62769 11.3316 6.9096 11.0497 7.33246 11.0497H11.5611V6.82099C11.5611 6.39812 11.843 6.11621 12.2659 6.11621Z" fill="white"/>
</svg>
