<svg width="16" height="16" viewBox="0 0 16 16" fill="none" xmlns="http://www.w3.org/2000/svg">
<g opacity="0.64">
<path d="M12.9844 4H5C4.46875 4 4.4125 3.35625 4.8625 3.25H12.9844C13.1 3.25 13.2188 3.25625 13.3344 3.27187C13.175 2.14375 12.1281 1.35937 11.0031 1.52187C10.9719 1.525 10.9438 1.53125 10.9125 1.5375L3.00938 2.88437C2.90313 2.9 2.79375 2.91875 2.6875 2.94062H2.68125C2.64063 2.94687 2.60312 2.95625 2.5625 2.96562C1.35312 3.25625 1 4.34375 1 5V5.75625C0.990625 5.8375 0.984375 5.91875 0.984375 6V12C0.984375 13.1031 1.88125 14 2.98438 14H12.9844C14.0875 14 14.9844 13.1031 14.9844 12V6C14.9844 4.89687 14.0875 4 12.9844 4ZM11.5 10C10.9469 10 10.5 9.55312 10.5 9C10.5 8.44687 10.9469 8 11.5 8C12.0531 8 12.5 8.44687 12.5 9C12.5 9.55312 12.0531 10 11.5 10Z" fill="#0D0D0D"/>
</g>
</svg>
