<svg width="40" height="40" viewBox="0 0 40 40" fill="none" xmlns="http://www.w3.org/2000/svg">
<rect width="40" height="40" rx="8" fill="#F0F1F5"/>
<path d="M29.1913 15.3785H13.0355C12.8366 15.3785 12.6458 15.2995 12.5052 15.1588C12.3645 15.0182 12.2855 14.8274 12.2855 14.6285C12.2855 14.4296 12.3645 14.2388 12.5052 14.0981C12.6458 13.9575 12.8366 13.8785 13.0355 13.8785H26.2145V11.066C26.2145 10.6662 26.0353 10.2935 25.7233 10.0437C25.57 9.9207 25.3908 9.83387 25.1993 9.78971C25.0078 9.74556 24.8087 9.74522 24.617 9.78873L10.5215 12.9537C10.231 13.018 9.9712 13.1797 9.78536 13.4121C9.59952 13.6445 9.49882 13.9334 9.50001 14.231V28.9332C9.50001 29.6547 10.0873 30.2427 10.8088 30.2427H29.1913C29.9128 30.2427 30.5 29.6555 30.5 28.9332V16.6872C30.5 15.9657 29.9128 15.3785 29.1913 15.3785ZM26.8295 24.1475C26.1283 24.1475 25.5583 23.5767 25.5583 22.8755C25.5583 22.1742 26.129 21.6035 26.8295 21.6035C27.5315 21.6035 28.1015 22.1742 28.1015 22.8755C28.1015 23.5767 27.5315 24.1475 26.8295 24.1475Z" fill="black"/>
</svg>
